<svg id="Tweaks_Black" data-name="Tweaks, Black" xmlns="http://www.w3.org/2000/svg" viewBox="0 0 412.37 137.23"><title>Site-Logos_Ben</title><path d="M68.64,113v1.38H47v-4.93a20,20,0,0,1-13.39,4.79c-5.62,0-9.42-3.19-9.42-8.64C24.22,97.68,32.09,90,47,86.94c-.56-7.6-3.8-9.34-10.37-9.34a14.3,14.3,0,0,0-9.51,3.28l-.43-.43C32.6,73.88,39,70.34,47.63,70.34c10.9,0,16.69,6.22,16.69,18.75V113ZM47,108.28V88.06c-5.19,1.47-12.09,8.21-12.09,15.25,0,5.4,6.65,5.22,10.1,5.22A9.76,9.76,0,0,0,47,108.28Z"/><path d="M125.42,113v1.38H100.36V113h3.46V87c0-6.74-1.64-9-5.19-9a12.64,12.64,0,0,0-5.18,1.29V113H96.9v1.38H71.84V113h4.32V81.48l-4.92-2.31,22.21-9.7v8.64c5.62-4.84,10.63-8.21,16.5-8.21,7.35,0,11.15,4.58,11.15,13.4V113Z"/><path d="M163.37,106.46c-3.2,5.1-8.9,8.81-16.85,8.81-10.29,0-14.35-6-14.35-17.28V73.45h-6.65v-.09l23.94-18.84V72.07h12.18v1.38H149.46V93.58c0,10,2.33,13.74,8.73,13.74a12.56,12.56,0,0,0,5.09-.95Z"/><path d="M164.59,113h4.32V81.48L164,79.17l22.21-9.7V113h4.32v1.38H164.59ZM168,58.32c0-5.7,3.45-9.59,9.59-9.59s9.59,3.89,9.59,9.59S183.69,68,177.55,68,168,64.11,168,58.32Z"/><path d="M247.12,113v1.38h-21.6v-6.83a20.93,20.93,0,0,1-15,6.69c-8.82,0-15.38-6.17-15.38-19.48,0-14.34,8.21-24.45,20.05-24.45a17.45,17.45,0,0,1,10.37,3.19V61.61l-4.93-2.32,22.21-9.7V113Zm-21.6-6.66V75a7.46,7.46,0,0,0-4.24-1.29c-4.49,0-11.69,6.44-11.69,17.16,0,11.58,6.51,16.37,12.3,16.37A9,9,0,0,0,225.52,106.37Z"/><path d="M250.85,92.55c0-12.36,9.68-22.21,23.76-22.21,14.26,0,24.55,8.64,24.55,22.21,0,12.61-8,22.72-24.46,22.72C262.25,115.27,250.85,106.46,250.85,92.55Zm37.07,15.21c0-7.26-14.52-34.31-22.12-34.31-2.16,0-3.46,1.55-3.46,4.23,0,8.47,15,34.48,22,34.48C286.71,112.16,287.92,110.69,287.92,107.76Z"/><path d="M339.61,106.46c-3.2,5.1-8.9,8.81-16.85,8.81-10.29,0-14.35-6-14.35-17.28V73.45h-6.65v-.09L325.7,54.52V72.07h12.18v1.38H325.7V93.58c0,10,2.33,13.74,8.73,13.74a12.53,12.53,0,0,0,5.09-.95Z"/><path d="M386.54,97.08c.15,2.89-3.31,19.19-23.42,19.19-12.18,0-22.21-9.46-22.21-22.86,0-12.62,8.47-23.07,22.3-23.07,8.12,0,13.74,4.75,13.74,11.06,0,7.17-7.53,15.48-17.9,19.37a23.49,23.49,0,0,0,18.94,6C386.3,105.57,386.54,97.08,386.54,97.08ZM351.63,78.46c0,7.17,1.71,16.43,6.9,21.79,2.42-3.11,5.37-8.57,5.37-13,0-7.51-5-13.91-8.73-13.91C352.92,73.36,351.63,75.26,351.63,78.46Z"/><circle cx="30.09" cy="83.17" r="4.33"/></svg>